<svg width="1280" height="844" viewBox="0 0 1280 844" fill="none" xmlns="http://www.w3.org/2000/svg">
<rect width="1280" height="844" fill="black"/>
<rect width="390" height="844" transform="translate(445)" fill="black"/>
<g clip-path="url(#clip0_257_5603)">
<path d="M591.64 428.104L611.157 411.669H619.398L602.146 425.683L620.44 444.447H612.651L597.935 429.108L591.64 434.176V444.447H585.843V411.669H591.64V428.104Z" fill="white"/>
<path d="M622.341 411.669H627.955V417.285H622.341V411.669ZM627.866 444.447H622.433V420.479H627.866V444.447Z" fill="white"/>
<path d="M633.119 420.479H638.552V423.631C639.398 422.657 640.552 421.812 642.016 421.097C643.48 420.382 645.253 420.023 647.337 420.023C648.997 420.023 650.468 420.297 651.752 420.846C653.035 421.394 654.112 422.17 654.989 423.175C655.863 424.179 656.529 425.38 656.981 426.782C657.434 428.183 657.66 429.72 657.66 431.393V444.449H652.227V432.305C652.227 430.176 651.683 428.432 650.598 427.079C649.51 425.726 647.866 425.047 645.663 425.047C643.337 425.047 641.571 425.719 640.364 427.056C639.157 428.396 638.552 430.176 638.552 432.398V444.449H633.119V420.479Z" fill="white"/>
<path d="M675.007 440.291C676.999 440.291 678.681 439.835 680.056 438.92C681.429 438.008 682.402 436.82 682.976 435.359L687.324 437.688C686.961 438.633 686.42 439.538 685.695 440.404C684.971 441.272 684.079 442.041 683.025 442.71C681.967 443.381 680.768 443.919 679.424 444.331C678.079 444.741 676.608 444.949 675.009 444.949C673.017 444.949 671.182 444.644 669.507 444.037C667.833 443.429 666.382 442.576 665.159 441.48C663.937 440.383 662.987 439.077 662.305 437.555C661.627 436.033 661.286 434.345 661.286 432.487C661.286 430.63 661.617 429.08 662.283 427.558C662.946 426.036 663.881 424.719 665.091 423.61C666.298 422.498 667.746 421.625 669.439 420.984C671.129 420.344 672.986 420.026 675.009 420.026C677.032 420.026 678.737 420.338 680.308 420.961C681.878 421.586 683.22 422.439 684.338 423.518C685.454 424.599 686.308 425.877 686.897 427.353C687.487 428.831 687.782 430.435 687.782 432.17V434.086H666.453C666.816 436.002 667.774 437.519 669.327 438.628C670.882 439.74 672.776 440.294 675.009 440.294L675.007 440.291ZM674.735 424.586C672.862 424.586 671.18 425.042 669.685 425.957C668.191 426.869 667.187 428.209 666.674 429.974H682.524C682.432 429.334 682.183 428.696 681.777 428.058C681.37 427.42 680.831 426.841 680.168 426.323C679.505 425.806 678.712 425.388 677.792 425.068C676.87 424.748 675.851 424.589 674.735 424.589V424.586Z" fill="white"/>
<path d="M694.387 425.134H688.41V420.477H694.387V413.447H699.731V420.477H710.191V425.134H699.731V435.726C699.731 437.278 700.153 438.344 700.999 438.92C701.843 439.499 703.172 439.786 704.984 439.786C705.98 439.786 706.9 439.679 707.746 439.466C708.592 439.253 709.406 439.025 710.191 438.782L711.096 443.44C710.643 443.622 710.137 443.791 709.578 443.942C709.019 444.093 708.432 444.224 707.812 444.329C707.192 444.436 706.559 444.526 705.911 444.603C705.261 444.677 704.636 444.716 704.031 444.716C702.763 444.716 701.548 444.58 700.384 444.306C699.223 444.031 698.196 443.56 697.304 442.891C696.412 442.223 695.703 441.347 695.174 440.265C694.646 439.187 694.382 437.839 694.382 436.225V425.132L694.387 425.134Z" fill="white"/>
<path d="M714.447 411.669H720.061V417.285H714.447V411.669ZM719.972 444.447H714.539V420.479H719.972V444.447Z" fill="white"/>
<path d="M737.36 428.877L745.194 420.477H751.761L740.712 432.118L752.079 444.444H745.106L737.362 435.769L729.212 444.444H722.6L734.013 432.528L722.918 420.477H729.802L737.365 428.877H737.36Z" fill="white"/>
<path d="M562.713 428.885C562.235 428.393 562.235 427.607 562.713 427.117L573.208 416.537C575.142 414.592 575.147 411.433 573.218 409.483C573.216 409.481 573.211 409.476 573.208 409.473L570.189 406.463C568.258 404.516 565.124 404.516 563.193 406.463L552.687 417.054C552.207 417.538 551.427 417.541 550.947 417.054L540.436 406.46C538.504 404.513 535.371 404.513 533.44 406.46L530.454 409.471C528.52 411.415 528.515 414.574 530.443 416.524C530.446 416.526 530.451 416.531 530.454 416.534L540.916 427.115C541.394 427.607 541.394 428.393 540.916 428.883L530.454 439.466C528.52 441.411 528.515 444.569 530.443 446.519C530.446 446.522 530.451 446.527 530.454 446.529L533.44 449.54C535.371 451.487 538.504 451.487 540.436 449.54L550.941 438.959C551.414 438.475 552.187 438.464 552.667 438.941C552.672 438.946 552.68 438.954 552.685 438.959L563.19 449.54C565.122 451.487 568.255 451.487 570.187 449.54L573.173 446.529C575.106 444.585 575.112 441.426 573.183 439.476C573.18 439.474 573.175 439.469 573.173 439.466L562.71 428.885H562.713ZM569.338 441.103L564.837 445.64C564.115 446.371 562.941 446.376 562.217 445.648C562.217 445.648 562.212 445.643 562.209 445.64L552.685 436.071C552.204 435.587 551.424 435.585 550.944 436.071L541.452 445.64C540.731 446.371 539.556 446.376 538.832 445.648C538.832 445.648 538.827 445.643 538.825 445.64L534.377 441.103C533.653 440.376 533.648 439.192 534.37 438.462C534.37 438.462 534.375 438.457 534.377 438.454L543.869 428.885C544.347 428.393 544.347 427.607 543.869 427.117L534.987 418.174C534.266 417.441 534.266 416.257 534.987 415.525L539.498 410.987C540.222 410.26 541.391 410.26 542.113 410.987L550.941 419.975C551.414 420.459 552.187 420.469 552.667 419.993C552.672 419.987 552.68 419.98 552.685 419.975L561.556 411.031C562.278 410.301 563.452 410.296 564.176 411.023C564.176 411.023 564.182 411.028 564.184 411.031L568.695 415.578C569.417 416.311 569.417 417.495 568.695 418.227L559.813 427.115C559.335 427.607 559.335 428.393 559.813 428.883L569.305 438.452C570.029 439.179 570.034 440.363 569.312 441.093C569.312 441.093 569.307 441.098 569.305 441.101H569.338V441.103Z" fill="white"/>
</g>
<path d="M631.408 404.132C632.656 404.132 633.604 403.448 633.988 402.332L633.04 401.996C632.848 402.74 632.248 403.196 631.408 403.196C630.316 403.196 629.56 402.356 629.5 401.036H634.036V400.676C634.036 398.936 633.112 397.604 631.36 397.604C629.656 397.604 628.468 398.996 628.468 400.868C628.468 402.8 629.668 404.132 631.408 404.132ZM631.348 398.528C632.44 398.528 632.92 399.32 632.944 400.208H629.56C629.752 399.14 630.436 398.528 631.348 398.528ZM638.987 404H640.211L637.907 400.724L640.007 397.724H638.819L637.283 399.92L635.771 397.724H634.535L636.635 400.724L634.343 404H635.519L637.247 401.528L638.987 404ZM644.24 404.132C645.98 404.132 646.976 402.644 646.976 400.868C646.976 399.08 645.98 397.604 644.24 397.604C643.364 397.604 642.668 398.024 642.296 398.636V397.724H641.216V406.16H642.296V403.088C642.668 403.712 643.364 404.132 644.24 404.132ZM642.272 400.652C642.272 399.188 643.16 398.552 644.048 398.552C645.224 398.552 645.884 399.512 645.884 400.868C645.884 402.212 645.224 403.184 644.048 403.184C643.16 403.184 642.272 402.536 642.272 401.096V400.652ZM650.849 404.132C652.097 404.132 653.045 403.448 653.429 402.332L652.481 401.996C652.289 402.74 651.689 403.196 650.849 403.196C649.757 403.196 649.001 402.356 648.941 401.036H653.477V400.676C653.477 398.936 652.553 397.604 650.801 397.604C649.097 397.604 647.909 398.996 647.909 400.868C647.909 402.8 649.109 404.132 650.849 404.132ZM650.789 398.528C651.881 398.528 652.361 399.32 652.385 400.208H649.001C649.193 399.14 649.877 398.528 650.789 398.528ZM658.074 397.7C657.966 397.688 657.81 397.676 657.642 397.676C656.79 397.676 656.178 398.156 655.902 398.792V397.724H654.822V404H655.902V400.568C655.902 399.464 656.634 398.744 657.546 398.744C657.75 398.744 657.894 398.756 658.074 398.792V397.7ZM659.215 396.632H660.391V395.384H659.215V396.632ZM660.343 397.724H659.263V404H660.343V397.724ZM664.654 404.132C665.902 404.132 666.85 403.448 667.234 402.332L666.286 401.996C666.094 402.74 665.494 403.196 664.654 403.196C663.562 403.196 662.806 402.356 662.746 401.036H667.282V400.676C667.282 398.936 666.358 397.604 664.606 397.604C662.902 397.604 661.714 398.996 661.714 400.868C661.714 402.8 662.914 404.132 664.654 404.132ZM664.594 398.528C665.686 398.528 666.166 399.32 666.19 400.208H662.806C662.998 399.14 663.682 398.528 664.594 398.528ZM668.627 404H669.707V400.256C669.707 399.212 670.499 398.612 671.279 398.612C672.215 398.612 672.587 399.272 672.587 400.148V404H673.667V399.86C673.667 398.528 672.911 397.604 671.579 397.604C670.691 397.604 670.067 398.06 669.707 398.576V397.724H668.627V404ZM676.048 400.868C676.048 399.428 676.816 398.54 677.932 398.54C678.796 398.54 679.312 399.104 679.492 399.872L680.428 399.404C680.128 398.36 679.24 397.604 677.932 397.604C676.18 397.604 674.968 398.924 674.968 400.868C674.968 402.8 676.18 404.132 677.932 404.132C679.24 404.132 680.152 403.34 680.452 402.296L679.492 401.852C679.312 402.632 678.796 403.184 677.932 403.184C676.816 403.184 676.048 402.296 676.048 400.868ZM684.142 404.132C685.39 404.132 686.338 403.448 686.722 402.332L685.774 401.996C685.582 402.74 684.982 403.196 684.142 403.196C683.05 403.196 682.294 402.356 682.234 401.036H686.77V400.676C686.77 398.936 685.846 397.604 684.094 397.604C682.39 397.604 681.202 398.996 681.202 400.868C681.202 402.8 682.402 404.132 684.142 404.132ZM684.082 398.528C685.174 398.528 685.654 399.32 685.678 400.208H682.294C682.486 399.14 683.17 398.528 684.082 398.528ZM693.67 404.132C695.41 404.132 696.406 402.644 696.406 400.868C696.406 399.08 695.41 397.604 693.67 397.604C692.794 397.604 692.098 398.024 691.726 398.636V397.724H690.646V406.16H691.726V403.088C692.098 403.712 692.794 404.132 693.67 404.132ZM691.702 400.652C691.702 399.188 692.59 398.552 693.478 398.552C694.654 398.552 695.314 399.512 695.314 400.868C695.314 402.212 694.654 403.184 693.478 403.184C692.59 403.184 691.702 402.536 691.702 401.096V400.652ZM703.171 400.868C703.171 398.924 701.971 397.604 700.255 397.604C698.539 397.604 697.339 398.924 697.339 400.868C697.339 402.812 698.539 404.132 700.255 404.132C701.971 404.132 703.171 402.812 703.171 400.868ZM698.431 400.868C698.431 399.428 699.151 398.516 700.255 398.516C701.359 398.516 702.079 399.428 702.079 400.868C702.079 402.296 701.359 403.208 700.255 403.208C699.151 403.208 698.431 402.296 698.431 400.868ZM707.415 397.724L706.119 402.392L704.799 397.724H703.683L705.591 404H706.539L707.847 399.344L709.155 404H710.103L712.011 397.724H710.931L709.623 402.404L708.327 397.724H707.415ZM715.455 404.132C716.703 404.132 717.651 403.448 718.035 402.332L717.087 401.996C716.895 402.74 716.295 403.196 715.455 403.196C714.363 403.196 713.607 402.356 713.547 401.036H718.083V400.676C718.083 398.936 717.159 397.604 715.407 397.604C713.703 397.604 712.515 398.996 712.515 400.868C712.515 402.8 713.715 404.132 715.455 404.132ZM715.395 398.528C716.487 398.528 716.967 399.32 716.991 400.208H713.607C713.799 399.14 714.483 398.528 715.395 398.528ZM722.679 397.7C722.571 397.688 722.415 397.676 722.247 397.676C721.395 397.676 720.783 398.156 720.507 398.792V397.724H719.427V404H720.507V400.568C720.507 399.464 721.239 398.744 722.151 398.744C722.355 398.744 722.499 398.756 722.679 398.792V397.7ZM726.119 404.132C727.367 404.132 728.315 403.448 728.699 402.332L727.751 401.996C727.559 402.74 726.959 403.196 726.119 403.196C725.027 403.196 724.271 402.356 724.211 401.036H728.747V400.676C728.747 398.936 727.823 397.604 726.071 397.604C724.367 397.604 723.179 398.996 723.179 400.868C723.179 402.8 724.379 404.132 726.119 404.132ZM726.059 398.528C727.151 398.528 727.631 399.32 727.655 400.208H724.271C724.463 399.14 725.147 398.528 726.059 398.528ZM732.395 404.132C733.271 404.132 733.967 403.712 734.339 403.088V404H735.419V395.384H734.339V398.636C733.967 398.024 733.271 397.604 732.395 397.604C730.655 397.604 729.659 399.08 729.659 400.868C729.659 402.644 730.655 404.132 732.395 404.132ZM734.363 400.652V401.096C734.363 402.536 733.475 403.184 732.587 403.184C731.411 403.184 730.751 402.212 730.751 400.868C730.751 399.512 731.411 398.552 732.587 398.552C733.475 398.552 734.363 399.188 734.363 400.652ZM742.76 404.132C744.5 404.132 745.496 402.644 745.496 400.868C745.496 399.08 744.5 397.604 742.76 397.604C741.884 397.604 741.188 398.024 740.816 398.636V395.384H739.736V404H740.816V403.088C741.188 403.712 741.884 404.132 742.76 404.132ZM740.792 400.652C740.792 399.188 741.68 398.552 742.568 398.552C743.744 398.552 744.404 399.512 744.404 400.868C744.404 402.212 743.744 403.184 742.568 403.184C741.68 403.184 740.792 402.536 740.792 401.096V400.652ZM749.048 404.684L751.748 397.724H750.62L748.88 402.524L747.116 397.724H745.976L748.304 403.772L748.004 404.516C747.752 405.14 747.5 405.308 747.032 405.308C746.852 405.308 746.72 405.296 746.516 405.248V406.184C746.708 406.22 746.84 406.232 747.104 406.232C748.196 406.232 748.688 405.632 749.048 404.684Z" fill="white"/>
<defs>
<clipPath id="clip0_257_5603">
<rect width="223" height="46" fill="white" transform="translate(529 405)"/>
</clipPath>
</defs>
</svg>
