<?xml version="1.0" encoding="UTF-8"?>
<svg id="Layer_2" data-name="Layer 2" xmlns="http://www.w3.org/2000/svg" xmlns:xlink="http://www.w3.org/1999/xlink" viewBox="0 0 879.35 181.06">
  <defs>
    <style>
      .cls-1 {
        fill: #fff;
      }

      .cls-2 {
        fill: url(#linear-gradient);
      }
    </style>
    <linearGradient id="linear-gradient" x1="12.86" y1="168.2" x2="168.2" y2="12.86" gradientUnits="userSpaceOnUse">
      <stop offset="0" stop-color="#ed4363"/>
      <stop offset="1" stop-color="#ef7375"/>
    </linearGradient>
  </defs>
  <g id="Layer_1-2" data-name="Layer 1">
    <g id="KINETIX_Logo_Horizontal_White">
      <g id="Calque_1" data-name="Calque 1">
        <g>
          <path class="cls-1" d="m248.03,89.73l76.8-64.15h32.43l-67.89,54.7,71.99,73.24h-30.65l-57.91-59.87-24.77,19.78v40.09h-22.81V25.58h22.81v64.15Z"/>
          <path class="cls-1" d="m368.84,25.58h22.09v21.92h-22.09v-21.92Zm21.74,127.94h-21.38V59.97h21.38v93.55Z"/>
          <path class="cls-1" d="m411.25,59.97h21.38v12.3c3.33-3.8,7.87-7.1,13.63-9.89,5.76-2.79,12.74-4.19,20.94-4.19,6.53,0,12.32,1.07,17.37,3.21,5.05,2.14,9.29,5.17,12.74,9.09,3.44,3.92,6.06,8.61,7.84,14.08,1.78,5.47,2.67,11.47,2.67,18v50.96h-21.38v-47.4c0-8.31-2.14-15.12-6.41-20.4-4.28-5.28-10.75-7.93-19.42-7.93-9.15,0-16.1,2.62-20.85,7.84-4.75,5.23-7.13,12.18-7.13,20.85v47.04h-21.38V59.97Z"/>
          <path class="cls-1" d="m576.07,137.31c7.84,0,14.46-1.78,19.87-5.35,5.4-3.56,9.23-8.2,11.49-13.9l17.11,9.09c-1.43,3.69-3.56,7.22-6.41,10.6-2.85,3.39-6.36,6.39-10.51,9-4.16,2.62-8.88,4.72-14.17,6.33-5.29,1.6-11.08,2.41-17.37,2.41-7.84,0-15.06-1.19-21.65-3.56-6.59-2.37-12.3-5.7-17.11-9.98-4.81-4.28-8.55-9.38-11.23-15.32-2.67-5.94-4.01-12.53-4.01-19.78s1.3-13.3,3.92-19.24c2.61-5.94,6.29-11.08,11.05-15.41,4.75-4.34,10.45-7.75,17.11-10.25,6.65-2.5,13.96-3.74,21.92-3.74s14.67,1.22,20.85,3.65c6.18,2.44,11.46,5.77,15.86,9.98,4.39,4.22,7.75,9.21,10.07,14.97,2.32,5.77,3.48,12.03,3.48,18.8v7.48h-83.93c1.43,7.48,5.2,13.4,11.31,17.73,6.12,4.34,13.57,6.5,22.36,6.5Zm-1.07-61.3c-7.37,0-13.99,1.78-19.87,5.35-5.88,3.56-9.83,8.79-11.85,15.68h62.37c-.36-2.5-1.34-4.99-2.94-7.48-1.6-2.49-3.72-4.75-6.33-6.77-2.61-2.02-5.73-3.65-9.35-4.9-3.63-1.25-7.64-1.87-12.03-1.87Z"/>
          <path class="cls-1" d="m652.34,78.15h-23.52v-18.18h23.52v-27.44h21.03v27.44h41.16v18.18h-41.16v41.34c0,6.06,1.66,10.22,4.99,12.47,3.32,2.26,8.55,3.38,15.68,3.38,3.92,0,7.54-.42,10.87-1.25,3.33-.83,6.53-1.72,9.62-2.67l3.56,18.18c-1.78.71-3.77,1.37-5.97,1.96-2.2.59-4.51,1.1-6.95,1.51-2.44.42-4.93.77-7.48,1.07-2.56.29-5.02.44-7.4.44-4.99,0-9.77-.53-14.35-1.6-4.57-1.07-8.61-2.91-12.12-5.52-3.51-2.61-6.3-6.03-8.38-10.25-2.08-4.21-3.12-9.47-3.12-15.77v-43.3Z"/>
          <path class="cls-1" d="m731.27,25.58h22.09v21.92h-22.09v-21.92Zm21.74,127.94h-21.38V59.97h21.38v93.55Z"/>
          <path class="cls-1" d="m821.44,92.76l30.83-32.79h25.84l-43.48,45.44,44.73,48.11h-27.44l-30.47-33.86-32.07,33.86h-26.02l44.91-46.51-43.66-47.04h27.09l29.76,32.79Z"/>
        </g>
      </g>
      <g id="Calque_1-2" data-name="Calque 1">
        <path class="cls-2" d="m175.79,135.19l-41.84-41.84c-1.56-1.56-1.56-4.09,0-5.65l41.84-41.84c7.02-7.02,7.02-18.4,0-25.42l-15.18-15.18c-7.02-7.02-18.4-7.02-25.42,0l-41.84,41.84c-1.56,1.56-4.09,1.56-5.65,0L45.87,5.26c-7.02-7.02-18.4-7.02-25.42,0l-15.18,15.18c-7.02,7.02-7.02,18.4,0,25.42l41.84,41.84c1.56,1.56,1.56,4.09,0,5.65L5.26,135.19c-7.02,7.02-7.02,18.4,0,25.42l15.18,15.18c7.02,7.02,18.4,7.02,25.42,0l41.84-41.84c1.56-1.56,4.09-1.56,5.65,0l41.84,41.84c7.02,7.02,18.4,7.02,25.42,0l15.18-15.18c7.02-7.02,7.02-18.4,0-25.42Zm-32.83,22.95c-3.12,3.12-8.18,3.12-11.3,0l-34.07-34.07-2.82-2.82c-2.34-2.34-6.13-2.34-8.47,0l-2.82,2.82-34.07,34.07c-3.12,3.12-8.18,3.12-11.3,0l-15.18-15.18c-3.12-3.12-3.12-8.18,0-11.3l34.07-34.07,2.82-2.82c2.34-2.34,2.34-6.13,0-8.47l-2.82-2.82L22.92,49.4c-3.12-3.12-3.12-8.18,0-11.3l15.18-15.18c3.12-3.12,8.18-3.12,11.3,0l34.07,34.07,2.82,2.82c2.34,2.34,6.13,2.34,8.47,0l2.82-2.82,34.07-34.07c3.12-3.12,8.18-3.12,11.3,0l15.18,15.18c3.12,3.12,3.12,8.18,0,11.3l-34.07,34.07-2.82,2.82c-2.34,2.34-2.34,6.13,0,8.47l2.82,2.82,34.07,34.07c3.12,3.12,3.12,8.18,0,11.3l-15.18,15.18Z"/>
      </g>
    </g>
  </g>
</svg>