<svg width="126" height="25" viewBox="0 0 126 25" fill="none" xmlns="http://www.w3.org/2000/svg">
<g clip-path="url(#clip0_141_3703)">
<path d="M35.35 12.5564L46.3775 3.62439H51.0341L41.2859 11.2407L51.6228 21.4384H47.2218L38.9066 13.1023L35.35 15.8564V21.4384H32.0747V3.62439H35.35V12.5564Z" fill="white"/>
<path d="M52.6968 3.62439H55.8687V6.67646H52.6968V3.62439ZM55.8184 21.4384H52.7485V8.41275H55.8184V21.4384Z" fill="white"/>
<path d="M58.7864 8.41276H61.8563V10.1254C62.3344 9.59627 62.9863 9.13679 63.8134 8.74832C64.6405 8.35985 65.6427 8.16492 66.8201 8.16492C67.7578 8.16492 68.5891 8.3139 69.3143 8.61187C70.0394 8.90983 70.6482 9.33172 71.1436 9.87753C71.6375 10.4233 72.0137 11.0764 72.2693 11.838C72.5249 12.5996 72.6527 13.435 72.6527 14.3443V21.4398H69.5828V14.8399C69.5828 13.6829 69.2755 12.7347 68.6624 11.9995C68.0478 11.2643 67.1188 10.8954 65.8739 10.8954C64.5601 10.8954 63.5621 11.2602 62.8801 11.987C62.198 12.7152 61.8563 13.6829 61.8563 14.8901V21.4398H58.7864V8.41276Z" fill="white"/>
<path d="M82.454 19.1799C83.5798 19.1799 84.5303 18.9321 85.3071 18.435C86.0825 17.9393 86.6325 17.2932 86.957 16.4996L89.4138 17.7653C89.2084 18.279 88.9026 18.7705 88.4934 19.2412C88.0841 19.7132 87.5801 20.1309 86.9842 20.4943C86.3869 20.8591 85.7092 21.1515 84.9496 21.3757C84.19 21.5998 83.3586 21.7112 82.4555 21.7112C81.3297 21.7112 80.293 21.5455 79.3468 21.2155C78.4005 20.8856 77.5807 20.4219 76.89 19.826C76.1993 19.23 75.6623 18.5199 75.2775 17.6929C74.8941 16.8658 74.7017 15.9482 74.7017 14.9387C74.7017 13.9293 74.8884 13.0869 75.2646 12.2598C75.6393 11.4328 76.1678 10.7171 76.8512 10.1142C77.5333 9.5099 78.3517 9.0351 79.308 8.68701C80.2629 8.33891 81.3125 8.16626 82.4555 8.16626C83.5984 8.16626 84.5619 8.33613 85.4493 8.67447C86.3367 9.01421 87.0948 9.47787 87.7266 10.0641C88.357 10.6516 88.8394 11.3464 89.1725 12.1484C89.5057 12.9518 89.6722 13.8235 89.6722 14.7661V15.8076H77.6209C77.8262 16.8491 78.3675 17.6734 79.2449 18.2763C80.1236 18.8805 81.1933 19.1813 82.4555 19.1813L82.454 19.1799ZM82.3004 10.6447C81.2422 10.6447 80.2916 10.8925 79.4473 11.3896C78.603 11.8853 78.0358 12.6135 77.7458 13.5728H86.7014C86.6497 13.2247 86.509 12.878 86.2792 12.5313C86.0495 12.1846 85.7451 11.87 85.3703 11.5887C84.9956 11.3074 84.5476 11.0805 84.0278 10.9064C83.5065 10.7324 82.9308 10.6461 82.3004 10.6461V10.6447Z" fill="white"/>
<path d="M93.4041 10.9427H90.0269V8.41136H93.4041V4.5907H96.4237V8.41136H102.334V10.9427H96.4237V16.6987C96.4237 17.5425 96.6621 18.1217 97.1402 18.435C97.6169 18.7497 98.3679 18.9057 99.3917 18.9057C99.9545 18.9057 100.474 18.8472 100.952 18.7316C101.431 18.616 101.89 18.4921 102.334 18.3598L102.845 20.8912C102.589 20.99 102.304 21.0819 101.988 21.1641C101.672 21.2462 101.34 21.3172 100.99 21.3743C100.639 21.4328 100.282 21.4815 99.9158 21.5233C99.5482 21.5637 99.195 21.5846 98.8532 21.5846C98.1367 21.5846 97.4504 21.5108 96.7927 21.3618C96.1365 21.2128 95.5564 20.9566 95.0524 20.5932C94.5484 20.2298 94.1478 19.7536 93.8492 19.166C93.5505 18.5798 93.4012 17.8475 93.4012 16.9703V10.9413L93.4041 10.9427Z" fill="white"/>
<path d="M104.739 3.62439H107.911V6.67646H104.739V3.62439ZM107.86 21.4384H104.791V8.41275H107.86V21.4384Z" fill="white"/>
<path d="M117.685 12.977L122.112 8.41138H125.822L119.579 14.7383L126.001 21.437H122.061L117.686 16.7224L113.081 21.437H109.345L115.794 14.9611L109.525 8.41138H113.414L117.688 12.977H117.685Z" fill="white"/>
<path d="M19.0484 12.9811C18.7785 12.7137 18.7785 12.2863 19.0484 12.0203L24.9786 6.26984C26.0713 5.21303 26.0742 3.49624 24.9843 2.43665C24.9829 2.43525 24.98 2.43247 24.9786 2.43108L23.2728 0.795043C22.1815 -0.263158 20.4111 -0.263158 19.3198 0.795043L13.3838 6.5511C13.1125 6.81426 12.6717 6.81565 12.4003 6.5511L6.46147 0.793651C5.3702 -0.26455 3.59976 -0.26455 2.50849 0.793651L0.821327 2.42969C-0.271378 3.48649 -0.27425 5.20329 0.815584 6.26288C0.817019 6.26427 0.819891 6.26706 0.821327 6.26845L6.73285 12.0189C7.00279 12.2863 7.00279 12.7137 6.73285 12.9797L0.821327 18.7316C-0.271378 19.7884 -0.27425 21.5051 0.815584 22.5647C0.817019 22.5661 0.819891 22.5689 0.821327 22.5703L2.50849 24.2063C3.59976 25.2645 5.3702 25.2645 6.46147 24.2063L12.3974 18.4559C12.6645 18.1927 13.101 18.1871 13.3724 18.4461C13.3752 18.4489 13.3795 18.4531 13.3824 18.4559L19.3183 24.2063C20.4096 25.2645 22.1801 25.2645 23.2713 24.2063L24.9585 22.5703C26.0512 21.5135 26.0541 19.7967 24.9642 18.7371C24.9628 18.7357 24.9599 18.7329 24.9585 18.7316L19.047 12.9811H19.0484ZM22.7917 19.6213L20.2488 22.0872C19.841 22.484 19.1776 22.4868 18.7684 22.0913C18.7684 22.0913 18.7655 22.0886 18.7641 22.0872L13.3824 16.8867C13.111 16.6235 12.6702 16.6221 12.3988 16.8867L7.03582 22.0872C6.62803 22.484 5.96465 22.4868 5.55543 22.0913C5.55543 22.0913 5.55256 22.0886 5.55112 22.0872L3.03833 19.6213C2.6291 19.2258 2.62623 18.5826 3.03402 18.1857C3.03402 18.1857 3.03689 18.183 3.03833 18.1816L8.40134 12.9811C8.67129 12.7137 8.67129 12.2863 8.40134 12.0203L3.38294 7.15956C2.97515 6.76135 2.97515 6.11807 3.38294 5.71985L5.93163 3.25397C6.34085 2.85854 7.00136 2.85854 7.40915 3.25397L12.3974 8.1384C12.6645 8.40156 13.101 8.40713 13.3724 8.14815C13.3752 8.14536 13.3795 8.14119 13.3824 8.1384L18.3951 3.27764C18.8029 2.88081 19.4662 2.87803 19.8755 3.27346C19.8755 3.27346 19.8783 3.27625 19.8798 3.27764L22.4285 5.74909C22.8363 6.14731 22.8363 6.79059 22.4285 7.18881L17.4101 12.0189C17.1401 12.2863 17.1401 12.7137 17.4101 12.9797L22.7731 18.1802C23.1823 18.5756 23.1852 19.2189 22.7774 19.6157C22.7774 19.6157 22.7745 19.6185 22.7731 19.6199H22.7917V19.6213Z" fill="url(#paint0_linear_141_3703)"/>
</g>
<defs>
<linearGradient id="paint0_linear_141_3703" x1="0" y1="0" x2="26.7441" y2="24.1769" gradientUnits="userSpaceOnUse">
<stop stop-color="#ED4363"/>
<stop offset="1" stop-color="#EF7375"/>
</linearGradient>
<clipPath id="clip0_141_3703">
<rect width="126" height="25" fill="white"/>
</clipPath>
</defs>
</svg>
